<?xml version="1.0" encoding="utf-8"?>
<!-- Generator: Adobe Illustrator 26.2.1, SVG Export Plug-In . SVG Version: 6.00 Build 0)  -->
<svg version="1.1" id="Layer_1" xmlns="http://www.w3.org/2000/svg" xmlns:xlink="http://www.w3.org/1999/xlink" x="0px" y="0px"
	 viewBox="0 0 1081 840.5" style="enable-background:new 0 0 1081 840.5;" xml:space="preserve">
<style type="text/css">
	.st0{fill:#F2F2F2;}
	.st1{fill:#0C55CD;}
	.st2{fill:#444444;}
	.st3{fill:#FBC661;}
	.st4{fill:#FBB3B2;}
	.st5{opacity:5.000000e-02;enable-background:new    ;}
	.st6{opacity:0.1;enable-background:new    ;}
	.st7{fill:#3F3D56;}
	.st8{fill:#EEEFF3;}
	.st9{fill:#A0616A;}
	.st10{fill:#050505;}
</style>
<path class="st0" d="M979.7,689.3c-10.2-10.8-33.7-20.1-65.2-26.2V523.8h-1.4v-1.4h-26v1.4h-40.8c3.7-21.1,15.9-94.6,13.4-124.1
	c0,0,31.7-86.6,5.8-158.7c0,0,26,5.8,28.9-23.1c2.3-23.3,29.1-74.8-1.6-104.4c-7.2-7.6-17.9-13.8-33.4-18l-7.5-21
	c4.9-7.8,7.9-18.2,7.9-29.7c0-15.5-5.5-29.1-13.6-36.8c-4.7-5-10.5-8-16.7-8c-4.7,0.1-9.3,1.7-13,4.7c0.5,0.4,1.1,0.8,1.6,1.3
	c-9.5,7.1-16,21.8-16,38.8c0,12.8,3.8,24.4,9.7,32.3l-3.9,25.4c0,0-80.8-20.2-46.2,115.5c0,0,8.7,23.1,23.1,23.1
	c0,0-8.7,103.9,5.8,141.4c0,0-5.8,92.4,5.8,112.5v28.9H724v142.9c-36.9,8.5-60.6,21.5-60.6,36c0,25.5,72.4,46.2,161.6,46.2
	s161.6-20.6,161.6-46.1C986.6,698.1,984.2,693.6,979.7,689.3z"/>
<path class="st0" d="M410.9,704.5c-9.4-10.1-31.3-18.7-60.7-24.4V550.4h-1.3v-1.3h-24.2v1.3h-38c3.4-19.6,14.8-88,12.5-115.5
	c0,0,29.5-80.6,5.4-147.7c0,0,24.2,5.4,26.9-21.5c2.2-21.7,27.1-69.6-1.5-97.1c-6.7-7-16.7-12.9-31.1-16.7l-7-19.6
	c4.6-7.2,7.4-16.9,7.4-27.7c0-14.4-5.1-27.1-12.7-34.2c-4.4-4.7-9.7-7.4-15.5-7.4c-4.4,0.1-8.6,1.6-12.1,4.3c0.5,0.4,1,0.8,1.5,1.2
	c-8.8,6.6-14.9,20.3-14.9,36.1c0,12,3.5,22.7,9,30l-3.6,23.7c0,0-75.2-18.8-43,107.4c0,0,8.1,21.5,21.5,21.5c0,0-8.1,96.7,5.4,131.6
	c0,0-5.4,85.9,5.4,104.7v26.8H173v133c-34.4,7.9-56.4,20-56.4,33.5c0,23.7,67.3,43,150.4,43s150.4-19.2,150.4-43
	C417.4,712.6,415.1,708.4,410.9,704.5z"/>
<path class="st0" d="M632.2,697.7c-7-7.5-23.3-13.9-45.2-18.2V583h-1v-1h-18v1h-28.3c2.5-14.6,11-65.6,9.3-86c0,0,22-60,4-110
	c0,0,18,4,20-16c1.6-16.1,20.2-51.8-1.1-72.4c-5-5.2-12.4-9.6-23.2-12.5l-5.2-14.6c3.7-6.2,5.6-13.4,5.5-20.6
	c0-10.8-3.8-20.2-9.5-25.5c-3.3-3.5-7.2-5.5-11.5-5.5c-3.3,0.1-6.4,1.2-9,3.2c0.4,0.3,0.7,0.6,1.1,0.9c-6.6,4.9-11.1,15.1-11.1,26.9
	c0,8.9,2.6,16.9,6.7,22.4l-2.7,17.6c0,0-56-14-32,80c0,0,6,16,16,16c0,0-6,72,4,98c0,0-4,64,4,78v20h-50v99c-25.6,5.9-42,14.9-42,25
	c0,17.7,50.2,32,112,32s112-14.3,112-32C637,703.8,635.3,700.6,632.2,697.7z"/>
<path class="st0" d="M1040.2,714.1c-4.1-4.4-13.8-8.2-26.6-10.7v-56.9h-0.6v-0.6h-10.6v0.6h-16.7c1.5-8.6,6.5-38.6,5.5-50.7
	c0,0,13-35.4,2.4-64.8c0,0,10.6,2.4,11.8-9.4c1-9.5,11.9-30.5-0.7-42.6c-2.9-3.1-7.3-5.6-13.7-7.3l-3.1-8.6
	c2.2-3.7,3.3-7.9,3.2-12.1c0-6.3-2.2-11.9-5.6-15c-1.7-2-4.2-3.2-6.8-3.2c-1.9,0-3.8,0.7-5.3,1.9c0.2,0.2,0.4,0.3,0.6,0.5
	c-3.9,2.9-6.5,8.9-6.5,15.8c-0.1,4.7,1.3,9.3,4,13.2l-1.6,10.4c0,0-33-8.2-18.9,47.2c0,0,3.5,9.4,9.4,9.4c0,0-3.5,42.4,2.4,57.8
	c0,0-2.4,37.7,2.4,46v11.8h-29.5v58.4c-15.1,3.5-24.8,8.8-24.8,14.7c0,10.4,29.6,18.9,66,18.9c36.4,0,66-8.5,66-18.9
	C1043,717.6,1042,715.8,1040.2,714.1z"/>
<path class="st0" d="M180.2,714.1c-4.1-4.4-13.8-8.2-26.6-10.7v-56.9h-0.6v-0.6h-10.6v0.6h-16.7c1.5-8.6,6.5-38.6,5.5-50.7
	c0,0,13-35.4,2.4-64.8c0,0,10.6,2.4,11.8-9.4c0.9-9.5,11.9-30.5-0.7-42.6c-3-3.1-7.3-5.6-13.6-7.3l-3.1-8.6
	c2.2-3.7,3.3-7.9,3.2-12.1c0-6.3-2.2-11.9-5.6-15c-1.7-2-4.2-3.2-6.8-3.2c-1.9,0-3.8,0.7-5.3,1.9c0.2,0.2,0.4,0.3,0.6,0.5
	c-3.9,2.9-6.5,8.9-6.5,15.8c-0.1,4.7,1.3,9.3,3.9,13.2l-1.6,10.4c0,0-33-8.2-18.9,47.1c0,0,3.5,9.4,9.4,9.4c0,0-3.5,42.4,2.4,57.8
	c0,0-2.4,37.7,2.4,46v11.8H75.7v58.4c-15.1,3.5-24.8,8.8-24.8,14.7c0,10.4,29.6,18.9,66,18.9s66-8.5,66-18.9
	C183,717.6,182,715.8,180.2,714.1z"/>
<path class="st1" d="M0,718.4h1081c0,0-40,108.7-142.5,70s-163.7,7.5-220,28.7s-168.7,37.5-197.5,5s-55-47.5-156.2-35
	s-167.5,38.7-180,3.8s-15-46.2-86.2-40S0,718.4,0,718.4z"/>
<path class="st2" d="M634.7,370c-12.1,20.6-14,45.5-18.1,69.1c-6.4,36.5-19,71.8-25.3,108.3c-2.2,12.8-3.6,25.8-7.2,38.2
	c-4.8,17.2-13.4,33-21.5,48.8c-13.7,27.1-26.2,55.2-31.3,85.2c-1.6,9.3-0.3,22,8.9,24c2.6,0.6,5.6,0.1,7.9,1.6
	c1.3,0.9,2.2,2.3,3.2,3.5c4.1,4.5,11,5,16.8,3.4s10.9-5.2,16.2-8c21.4-11,46.7-9.7,70.6-8.1c4.4,0.3,9.4,0.8,12.2,4.3
	c1.4,1.8,2,4,3,6c3.7,7.2,13.5,10.6,20.9,7.2c2.8-1.3,5.1-3.4,8-4.4c8.8-3.3,18,3.8,27.4,3.9c13.5,0.1,23.7-14.2,37.2-14.7
	c9.2-0.3,17.6,5.9,26.8,6c6.9,0,13.3-3.5,19.3-6.9l41-23.2c-11-15.3-24.4-28.7-39.7-39.7c-11.3-8-14.3-24-21.2-36
	c-4.5-7.9-9.2-16-11.4-24.9c-1.6-6.4-1.9-13.1-3.5-19.5c-2.2-8.8-6.7-16.9-10.3-25.3c-14.2-33.2-13.7-71-26.7-104.6
	c-3.7-9.5-8.4-18.5-11.6-28.2c-4.3-12.7-6-26.1-10.3-38.8s-12-25.1-24.2-30.5c-5.3-2.2-11-3.4-16.7-3.6
	C660.8,362.1,648,364.5,634.7,370z"/>
<rect x="631.1" y="201.8" class="st3" width="57" height="76.1"/>
<path class="st2" d="M686.6,260.8c-2.9-0.5-5.9,0-8.8,0c-7.2-0.1-9.3,8.6-16.5,9.3c-8.8,0.9-20.9-4.7-28.3,0.2
	c-1.3,0.9-2.8,1.8-4.2,2.4c-6,2.6-13.3,1.7-18.8,5.2s-7.5,10.7-7.5,17.2c-0.1,2.3,0.2,4.7,1,6.9c0.8,1.9,2,3.5,2.8,5.4
	c0.5,1.3,0.8,2.7,1.3,4.1c1.2,3.1,2.9,6,5,8.6l12.7,17.7c3.3,4.6,2,10.4,2.5,16.1c0.4,4.4,1.4,8.7,1.4,13.1s-1.2,9-4.5,12
	c7.5-0.5,15-1.1,22.5-2.1c6.2-0.8,12.3-1.7,18.5-2.1c13-0.9,26.1,0.3,39,1.5c-2.1-2.7-3.1-6.4-3.6-9.7c-1.8-11.2-2.9-22.9,0.8-33.6
	c1.2-3.2,2.6-6.3,4.2-9.3l4-8c5.6-11.2,10.8-22.8,12-35.3c0.4-3.2,0.1-6.5-1.1-9.5c-1.7-3.9-5.5-6.6-9.5-7.9
	c-4.1-1.2-8.4-1.5-12.6-1.1C694.9,262.1,690.5,261.4,686.6,260.8z"/>
<path class="st4" d="M645.5,255.5c0.9,2.4,2,4.9,1.3,7.4c-1.3,4.9-8.1,5.9-11,10c-0.5,0.6-0.7,1.4-0.5,2.1c0.1,0.2,0.3,0.5,0.5,0.6
	c5.5,4.8,13.4,5.2,20.7,5.1c10.6-0.1,21.9-1,30.3-7.4c2.3-1.8,4.6-4.8,3.4-7.5c-0.9-2.1-3.4-2.9-5.4-3.9c-4.5-2.3-7.8-6.6-9.6-11.4
	s-2.3-9.9-2.3-15c0.1-0.9-0.1-1.7-0.5-2.5c-0.7-1-2-1.1-3.2-1.2c-6.9-0.5-13.7-0.2-20.5,0.8c-1.9,0.3-5.6,0.5-6.9,2.1
	s-0.6,3.4-0.3,5.1C642.2,245.2,643.6,250.5,645.5,255.5z"/>
<path class="st5" d="M645.5,255.5c0.9,2.4,2,4.9,1.3,7.4c-1.3,4.9-8.1,5.9-11,10c-0.5,0.6-0.7,1.4-0.5,2.1c0.1,0.2,0.3,0.5,0.5,0.6
	c5.5,4.8,13.4,5.2,20.7,5.1c10.6-0.1,21.9-1,30.3-7.4c2.3-1.8,4.6-4.8,3.4-7.5c-0.9-2.1-3.4-2.9-5.4-3.9c-4.5-2.3-7.8-6.6-9.6-11.4
	s-2.3-9.9-2.3-15c0.1-0.9-0.1-1.7-0.5-2.5c-0.7-1-2-1.1-3.2-1.2c-6.9-0.5-13.7-0.2-20.5,0.8c-1.9,0.3-5.6,0.5-6.9,2.1
	s-0.6,3.4-0.3,5.1C642.2,245.2,643.6,250.5,645.5,255.5z"/>
<circle class="st4" cx="658.4" cy="220.2" r="25.6"/>
<path class="st6" d="M682.8,749c-2,0.9-4,2-5.8,3.2c4.6,2.9,10.3,3.3,15.3,1.2c1.9-0.9,3.7-2.2,5.5-3.2
	C692.7,748.6,687.7,747.2,682.8,749z"/>
<path class="st6" d="M568.1,744.1c-4.3,2.2-8.5,4.9-12.9,6.8c4.1,2.4,9.5,2.5,14.2,1.2c5.8-1.7,10.9-5.2,16.2-8
	c11.7-6,24.6-8.3,37.9-9C604.2,734.4,584.9,735.5,568.1,744.1z"/>
<path class="st6" d="M812.2,674.4c-11.3-8-14.3-24-21.2-36c-4.5-7.9-9.2-16-11.4-24.9c-1.6-6.4-1.9-13.1-3.5-19.5
	c-2.2-8.8-6.7-16.9-10.3-25.3c-14.2-33.2-13.7-71-26.7-104.6c-3.7-9.5-8.4-18.5-11.6-28.2c-4.3-12.7-6-26.1-10.3-38.8
	s-12-25.1-24.2-30.5c-5.2-2.3-11-3.2-16.7-3.6c-4.8-0.3-9.7-0.2-14.5,0.2c4.7,0.4,9.4,1.5,13.8,3.4c12.2,5.5,19.9,17.9,24.2,30.5
	s6,26.1,10.3,38.8c3.2,9.6,8,18.7,11.6,28.2c13,33.6,12.5,71.5,26.7,104.6c3.6,8.4,8.1,16.4,10.3,25.3c1.6,6.4,1.9,13.1,3.5,19.5
	c2.2,8.9,6.8,16.9,11.4,24.9c6.9,12,9.9,27.9,21.2,36c15.3,10.9,28.8,24.3,39.8,39.7l-41,23.2c-3.4,2.1-7,3.8-10.8,5.3
	c2.9,1,5.9,1.5,9,1.6c6.9,0,13.2-3.5,19.2-6.9l41-23.2C841,698.7,827.6,685.3,812.2,674.4z"/>
<path class="st6" d="M747.4,738.1c-10.6,0.4-19.1,9.2-28.8,13c2.9,1,6,1.6,9.1,1.7c10.9,0,19.6-9.2,29.6-13.1
	C754.1,738.7,750.7,738.1,747.4,738.1z"/>
<path class="st1" d="M656.9,366.8v-18.9h-9.2c0.5-2.8,2.1-12.7,1.8-16.7c0,0,4.3-11.6,0.8-21.3c1.7,0.4,3.4-0.6,3.8-2.3
	c0.1-0.3,0.1-0.5,0.1-0.8c0.4-3.9,5.8-13.6-4.7-16.3l-1.1-3c0.7-1.2,1.1-2.6,1.1-4c0-3.2-1.7-5.8-3.9-5.8s-3.9,2.6-3.9,5.8
	c0,1.6,0.4,3.1,1.3,4.4l-0.5,3.5c0,0-10.9-2.7-6.2,15.5c0,0,1.2,3.1,3.1,3.1c0,0-1.2,14,0.8,19c0,0-0.8,12.4,0.8,15.1v3.9h-9.7v19.2
	c-5,1.1-8.2,2.9-8.2,4.9c0,3.4,9.7,6.2,21.7,6.2s21.7-2.8,21.7-6.2C666.6,369.8,662.7,367.9,656.9,366.8z"/>
<path class="st6" d="M645.8,283.2c0,1.4-0.3,2.8-1.1,4l1.1,3c10.5,2.7,5,12.4,4.7,16.3c0,1.7-1.4,3.2-3.1,3.2c-0.3,0-0.5,0-0.8-0.1
	c3.5,9.7-0.8,21.3-0.8,21.3c0.3,4-1.3,13.9-1.8,16.7h3.5c0.5-2.8,2.1-12.7,1.8-16.7c0,0,4.3-11.6,0.8-21.3c1.7,0.4,3.4-0.6,3.8-2.3
	c0.1-0.3,0.1-0.5,0.1-0.8c0.4-3.9,5.8-13.6-4.7-16.3l-1.1-3c0.7-1.2,1.1-2.6,1.1-4c0-3.2-1.7-5.8-3.9-5.8c-0.6,0-1.3,0.2-1.8,0.6
	C645.1,279.4,645.9,281.3,645.8,283.2z"/>
<path class="st6" d="M656.7,366.6v-18.9h-3.5v18.9c5.8,1.1,9.7,3,9.7,5.2c0,3.3-8.8,5.9-20,6.2h1.8c12,0,21.7-2.8,21.7-6.2
	C666.4,369.6,662.5,367.7,656.7,366.6z"/>
<path class="st3" d="M667,184.2c-8-2-16.6-3.5-24.2-0.5c-3.5,1.5-6.7,3.7-9.5,6.3c-2.6,2.2-5.1,4.7-6.5,7.9
	c-1.7,3.8-1.5,8.1-1.6,12.2s-0.7,8.6-3.4,11.7c-1.1,1.2-2.5,2.2-3.2,3.6c-1,2-0.3,4.5,0.6,6.5s2.3,4,2.7,6.2
	c0.6,3.1-0.6,6.2-2.3,8.9s-3.9,4.9-5.6,7.5s-3.1,6.4-1.5,9.2c1,1.9,3.1,3,4.1,4.8c0.5,0.9,0.8,1.9,1.3,2.7c1.5,2.3,4.6,2.9,7.3,3.2
	c4.4,0.5,9.2,0.6,12.6-2.2c2.3-1.9,3.5-4.9,4.1-7.9s0.6-6,1.1-9c0.4-2.1,1-4.3,0.8-6.4c-0.2-2.9-1.9-5.4-3.2-8
	c-2-3.6-2.9-7.7-2.7-11.8c0.4-4.1,2.5-8.1,6.1-10c2.5-1.4,5.6-1.7,7.8-3.7c3.4-3,2.9-8.3,3.5-12.8c0.1-1,0.4-2,1-2.8
	c1.1-1.4,3-1.8,4.8-2c4.2-0.4,8.6,0.1,12.2,2.4c3.3,2.3,5.5,5.8,6.3,9.7c0.8,3.9,0.7,7.9-0.2,11.8c0.1-1.7,2.7-2.1,3.9-1
	s1.3,3.1,0.9,4.8c-1.4,7-7.7,12-9.9,18.8c-1.7,5.7-0.3,11.9,3.7,16.3c0.5,0.6,1.2,1.1,2,1.4c0.8,0.2,1.6,0.2,2.4,0.1
	c3.2,0,5.9,2.2,8.4,4.3s5,4.3,8.2,4.6s6.7-2.7,5.8-5.7c-0.3-0.9-0.9-1.7-1.6-2.4c-2-2.1-4.6-3.7-6-6.2c-2.4-4.2-0.9-9.5,0.6-14.1
	s3-9.9,0.5-14.1c-1.2-2-3.1-3.5-4-5.6c-0.5-1.2-0.8-2.5-0.8-3.9c-0.2-4.8,1-9.8,0-14.5c-1.2-4.6-4.2-8.5-8.3-10.9
	c-2.1-1.3-4.3-2.2-6.7-2.8c-0.9-0.2-2.3-0.2-2.9-0.9s-0.9-1.9-1.7-2.6C672,185.7,669.4,184.8,667,184.2z"/>
<path class="st5" d="M683.4,215.4c-0.9-0.8-2.2-0.9-3.2-0.3c0,2.1-0.3,4.2-0.7,6.3c0.4-1.4,2.8-1.7,3.9-0.6c0.2,0.2,0.4,0.5,0.6,0.8
	c0.1-0.5,0.3-0.9,0.3-1.4C684.6,218.6,684.6,216.6,683.4,215.4z"/>
<path class="st5" d="M693.5,213.6c0,0.4,0,0.8,0.1,1.2c0.3-2.7,0.4-5.5,0.2-8.2C693.6,208.9,693.5,211.3,693.5,213.6z"/>
<path class="st5" d="M679.5,221.5c0,0.1,0,0.2-0.1,0.3L679.5,221.5z"/>
<path class="st5" d="M696.2,248.7c0.4-2,0.9-4,1.6-6c1.2-3.7,2.4-7.8,1.6-11.4c-0.4,2-0.9,4-1.6,6
	C696.6,240.9,695.4,245,696.2,248.7z"/>
<path class="st5" d="M679.7,210.1c0.2,0.8,0.3,1.6,0.4,2.4c0.3-2.6,0.2-5.2-0.4-7.8c-0.8-3.9-3-7.4-6.3-9.7c-3.5-2.3-8-2.8-12.2-2.4
	c-1.8,0.2-3.7,0.6-4.8,2c-0.5,0.8-0.9,1.8-1,2.8c-0.6,4.5-0.1,9.8-3.5,12.8c-2.1,1.9-5.2,2.3-7.8,3.7c-3.6,2-5.7,6-6.1,10
	c-0.1,1.4-0.1,2.9,0.2,4.3c0.6-3.7,2.8-7,6-8.9c2.5-1.4,5.6-1.7,7.8-3.7c3.4-3,2.9-8.3,3.5-12.8c0.1-1,0.4-2,1-2.8
	c1.1-1.4,3-1.8,4.8-2c4.2-0.4,8.6,0.1,12.2,2.4C676.6,202.7,678.9,206.2,679.7,210.1z"/>
<path class="st5" d="M703.9,263.7c-1.2,1.3-3,2.1-4.8,2c-3.2-0.2-5.8-2.5-8.2-4.6s-5.2-4.2-8.4-4.3c-0.8,0.1-1.6,0-2.4-0.1
	c-0.8-0.3-1.5-0.8-2-1.4c-2.2-2.4-3.7-5.5-4.2-8.7c-0.8,5.1,0.7,10.3,4.2,14.1c0.5,0.6,1.2,1.1,2,1.4c0.8,0.2,1.6,0.2,2.4,0.1
	c3.2,0,5.9,2.2,8.4,4.3s5,4.3,8.2,4.6s6.7-2.7,5.8-5.7C704.7,264.8,704.3,264.2,703.9,263.7z"/>
<path class="st5" d="M621.8,237.2c0.4-1.5,0.5-3,0.2-4.5c-0.5-2.2-1.8-4.1-2.7-6.2c-0.2-0.4-0.4-0.8-0.5-1.3c0,0.1-0.1,0.1-0.1,0.2
	c-1,2-0.3,4.5,0.6,6.5C620.3,233.7,621.1,235.4,621.8,237.2z"/>
<path class="st5" d="M643.7,247.4c-0.2,0.9-0.4,1.8-0.5,2.7c-0.5,3-0.6,6-1.1,9s-1.8,6-4.1,7.9c-3.4,2.8-8.3,2.7-12.6,2.2
	c-2.7-0.3-5.8-0.9-7.3-3.2c-0.5-0.9-0.8-1.9-1.3-2.7c-1-1.8-3.1-3-4.1-4.8c-0.1-0.1-0.1-0.3-0.2-0.4c-0.8,1.9-0.7,4,0.2,5.8
	c1,1.9,3.1,3,4.1,4.8c0.5,0.9,0.8,1.9,1.3,2.7c1.5,2.3,4.6,2.9,7.3,3.2c4.4,0.5,9.2,0.6,12.6-2.2c2.3-1.9,3.5-4.9,4.1-7.9
	s0.6-6,1.1-9c0.4-2.1,1-4.3,0.8-6.4C643.9,248.5,643.8,247.9,643.7,247.4z"/>
<path class="st4" d="M606.4,285.4c0,0-5,2.7-8.2,27.9s-4.7,52-4.7,52s0,22.5,21.3,23.3c0,0,8.5,1.6,11.3,3.5s45.4-11.3,25.2-14
	s-27.5-1.6-27.5-1.6s-10.9-7-10.9-13.6s10.9-45.7,10.9-45.7L606.4,285.4z"/>
<path class="st7" d="M606.3,305.2c0.5,1.3,0.8,2.7,1.3,4.1c1.2,3.1,2.9,6,5,8.6c2.5,3.5,6.6,11.9,9.2,15.4
	c1.5-5.2,3.7-10.2,6.6-14.8l-21.9-35.5c0,0-1.7,0.9-3.8,6.7c-0.1,1-0.2,2.1-0.2,3.1c-0.1,2.3,0.2,4.7,1,6.9
	C604.3,301.7,605.6,303.3,606.3,305.2z"/>
<path class="st8" d="M681.5,233.2c0-0.5-0.3-0.9-0.8-1.1v-1.3c0.5-0.2,0.8-0.6,0.8-1.1c0-0.6-0.5-1.2-1.2-1.2
	c-0.6,0-1.2,0.5-1.2,1.2c0,0.5,0.3,1,0.8,1.1v1.3c-0.6,0.2-0.9,0.9-0.7,1.5c0.1,0.3,0.4,0.6,0.7,0.7v1.3c-0.6,0.2-0.9,0.9-0.7,1.5
	c0.1,0.3,0.4,0.6,0.7,0.7v1.3c-0.6,0.2-0.9,0.9-0.7,1.5s0.9,0.9,1.5,0.7s0.9-0.9,0.7-1.5c-0.1-0.3-0.4-0.6-0.7-0.7v-1.3
	c0.6-0.2,0.9-0.9,0.7-1.5c-0.1-0.3-0.4-0.6-0.7-0.7v-1.3C681.2,234.2,681.5,233.7,681.5,233.2z"/>
<path class="st4" d="M719,269.9c6,10,10.3,20.9,12.8,32.2c3.9,18.2,6.6,22.1,6.6,22.1s17.1,43.5-1.9,46.2s-52.4,0-52.4,0
	s-67.5,11.6-43.8-3.9s42.3-13.6,42.3-13.6s28.3-0.8,32.2-3.5l7.4-0.8L704.6,299L719,269.9z"/>
<path class="st7" d="M700.9,298.4l8.1,19c5.5-11.1,11.8-24.7,13-37c0.1-2.3,0.1-4.6-0.2-6.8c-0.9-1.9-2.1-3.6-3.5-5L700.9,298.4z"/>
<path class="st9" d="M435,517.2c0,0-19.6,40.9-6,55.3s22.8-56.9,22.8-56.9L435,517.2z"/>
<path class="st2" d="M340,708.3L318,736c0,0-44.5,17.6-3.6,20c0,0,20-1.6,24-4.4s6.4-8.4,14.4-5.2s17.2-3.2,17.2-3.2
	s1.2-31.2-6.8-34.8S340,708.3,340,708.3z"/>
<path class="st2" d="M422.1,718.3l-5.2,22.8c0,0-11.6,27.2,5.2,23.2S447.4,756,449,748s6-16.8,6-16.8s-4.8-12.4-9.2-12.8
	S422.1,718.3,422.1,718.3z"/>
<path class="st2" d="M314.8,442.3c0,0-14.4,99-4.4,153s22,109.4,22,109.4s-14,32,34,10.8c0,0-3.2-79.3-12.8-110.2s4.9-72.5,8.9-73.7
	c0,0,16,80.5,31.6,107s24.4,88.1,24.4,88.1s33.7,4.4,33.3-4.4s-6.4-83.3-26-109.8c0,0-16.8-44.1-6-89.7s-11.6-61.3-11.6-61.3
	l-35.6-42.1l-35.6-8L314.8,442.3z"/>
<path class="st9" d="M420.5,271.8c-0.4,1.3-1,2.5-1.8,3.6c-0.8,0.9-1.8,1.6-2.9,2.2c-3.5,2-7.2,3.6-11.1,4.8c-1,2,0.6,4.2,2.2,5.9
	l4.5,4.8c2.6,2.8,5.3,5.6,8.1,8.1c5.5,4.9,11.8,9,18.5,12c3.5,1.6,8.1,2.7,11,0.1s2.1-7.2,3.9-10.7c0.8-0.7,0.8-2,0.1-2.7
	c-0.1-0.1-0.3-0.2-0.4-0.3c-2.3-2.3-2.8-5.9-2.3-9.1s1.8-6.3,2.6-9.4c0.8-3.2,0.9-6.7-0.8-9.5c-1-1.5-2.3-2.7-3.8-3.7
	c-3.3-2.3-6.9-4.1-10.8-5.2c-2-0.5-4-0.9-6-1.5c-1.2-0.4-4.6-2.7-5.7-2.5C423.5,258.8,421.3,269.4,420.5,271.8z"/>
<path class="st6" d="M420.5,271.8c-0.4,1.3-1,2.5-1.8,3.6c-0.8,0.9-1.8,1.6-2.9,2.2c-3.5,2-7.2,3.6-11.1,4.8c-1,2,0.6,4.2,2.2,5.9
	l4.5,4.8c2.6,2.8,5.3,5.6,8.1,8.1c5.5,4.9,11.8,9,18.5,12c3.5,1.6,8.1,2.7,11,0.1s2.1-7.2,3.9-10.7c0.8-0.7,0.8-2,0.1-2.7
	c-0.1-0.1-0.3-0.2-0.4-0.3c-2.3-2.3-2.8-5.9-2.3-9.1s1.8-6.3,2.6-9.4c0.8-3.2,0.9-6.7-0.8-9.5c-1-1.5-2.3-2.7-3.8-3.7
	c-3.3-2.3-6.9-4.1-10.8-5.2c-2-0.5-4-0.9-6-1.5c-1.2-0.4-4.6-2.7-5.7-2.5C423.5,258.8,421.3,269.4,420.5,271.8z"/>
<path class="st8" d="M416,278.9c0-0.8-0.1-1.7-0.8-2.1c-0.4-0.2-0.8-0.3-1.3-0.3c-9.5,0-17.1,7.4-23.1,14.8
	c-12.5,15.5-22.4,32.9-31,50.9c-5.3,11.1-10.2,23.5-6.8,35.3c1.1,3.5,2.7,6.8,4.7,9.8c2.8,4.3,6.3,8.2,10.2,11.5
	c1.5,1.4,3.3,2.4,5.3,2.9c3,0.5,5.9-1.2,8.4-2.8c5.1-3.2,10.3-6.4,15.4-9.7c8.3-5.3,16.5-10.7,23.8-17.3s13.6-14.4,17.2-23.6
	c1.5-3.9,2.5-8,4.3-11.8c2.6-5.8,6.9-10.9,8.4-17.1c0.7-3,0.8-6,1.5-9c0.6-2.4,1.6-4.6,2.1-6.9s0.4-5-1.1-6.9
	c-2.5-3.2-7.5-2.7-11.5-1.9c-5.2,1.1-14.6,3.7-19.6,0.6C418,292.7,416.3,283.6,416,278.9z"/>
<path class="st10" d="M413.3,298.1l-5.6,0.4l-4-1.6l3.2-9.6c0,0,11.3,1.3,12.5,4.8c0,0,0.8,2.5,2.2,2.8s7-0.4,8.2,2.4s0.8,18-6.8,16
	l-3.6-9.6l-1.6-2.4C417.8,301.3,412.9,300.5,413.3,298.1z"/>
<path class="st2" d="M367.3,387.4c0,0,12.4-81.7,51.3-111c0,0,0.4-7.6-6.4-6.8s-35.2-4.8-35.2-4.8L350,316.9c0,0-6,48.5-10.4,56.5
	s-32,71.7-32,71.7s15.6,52.5,38.9-18c0,0-18,57.3,32.9,62.9s44.9-3.2,44.9-3.2l6-41.7v-31.3l11.2-22l45.7-58.1
	c0,0-31-42.9-36.9-39.1C450.1,294.6,411.7,355.4,367.3,387.4z"/>
<path class="st2" d="M382.9,268l-6-3.2c0,0-18.4,6.8-24.8,33.3c0,0-15.6,11.2-26,19.6c0,0-14-26-14-34.9c0,0-23.2,15.6-28.5,11.6
	c0,0,14,64.5,40.5,59.7s36.4-20.4,36.4-20.4L382.9,268z"/>
<path class="st2" d="M471.8,336.1l15.2-2.4c0,0,9.6,12.8-7.6,31.6L469,429.1c0,0,1.2,21.2-2.4,37.3s-9.2,65.3-9.2,65.3
	S439,524.8,429,526l15.2-147.8L471.8,336.1z"/>
<path class="st9" d="M311.2,287.2c0,0-8.4-50.5-22.8-31.6s1.6,44.9,1.6,44.9L311.2,287.2z"/>
<circle class="st9" cx="451.2" cy="257.4" r="32.5"/>
<path d="M477.1,222.4c-0.7-0.9-1.4-1.9-2-2.9c-2-2.9-5-4.7-8-6.4c-5.5-3-11.8-5.8-17.9-4.4c-4.2,1-7.8,4-12.1,4.9s-9.3-0.1-12.2,3.1
	s-1.6,8.2-4.1,11.5c-1.4,1.8-3.9,3.5-3.2,5.7c0.3,0.9,1.1,1.6,1.5,2.5c0.7,1.6-0.2,3.4-0.2,5.1c0,2.5,1.7,4.7,2.9,6.9s1.9,5.3,0,7.1
	c6.4-5.1,13.3-9.4,20.8-12.7c0,1-0.3,2-0.8,2.9c4-0.6,8-1.4,11.9-2.5l-2.1,4l8.8-3.9c2.4-1,5.4-2,7.4-0.4c0.9,0.9,1.6,2,1.9,3.3
	c1.2,3.6,1.9,7.4,2.1,11.1c0.2,4.3,0,9,2.8,12.3c3.2,3.3,8.4,3.5,11.8,0.3c0.1-0.1,0.3-0.3,0.4-0.4c0.8-3-0.4-6.1-0.5-9.2
	c-0.1-4.5,2.2-8.7,2.6-13.2c0.5-5.6-2.8-9-4.3-14c-0.6-1.9-0.2-4.2-1.4-6C481.9,224.8,479,224.3,477.1,222.4z"/>
<path class="st1" d="M288.5,313.9l11.6-19.4l-9.4-5.6c2.2-2.6,10-11.8,12.1-16.1c0,0,11.5-9.4,13.9-21.5c0,0,3.1,2.9,5.9-0.8
	s14.3-10.4,5.2-19.6l0.7-3.7c1.5-0.8,2.7-2,3.5-3.5c2-3.3,1.8-7-0.4-8.4s-5.6,0.3-7.6,3.6c-1,1.6-1.4,3.4-1.3,5.3l-2.6,3.2
	c0,0-9.5-9.4-15.9,12.2c0,0-0.7,3.9,1.3,5.1c0,0-9.8,13.6-10.9,20c0,0-8.4,12.3-8.5,16l-2.4,4l-10-5.9L262,298.5
	c-5.8-1.9-10.1-2-11.4,0c-2.1,3.5,6.2,12.4,18.5,19.7s24,10.4,26.1,6.9C296.7,323,293.9,318.7,288.5,313.9z"/>
<path class="st6" d="M328.3,221.2c-0.8,1.5-2.1,2.7-3.5,3.5l-0.7,3.7c9.1,9.2-2.4,15.9-5.2,19.6c-1,1.8-3.3,2.4-5.1,1.4
	c-0.3-0.2-0.5-0.4-0.8-0.6c-2.4,12.1-13.9,21.5-13.9,21.5c-2.1,4.3-9.8,13.5-12.1,16.1l3.6,2.1c2.2-2.6,10-11.8,12.1-16.1
	c0,0,11.5-9.4,13.9-21.5c0,0,3.1,2.9,5.9-0.8s14.3-10.4,5.2-19.6l0.7-3.7c1.5-0.8,2.7-2,3.5-3.5c2-3.3,1.8-7-0.4-8.4
	c-0.7-0.4-1.4-0.5-2.2-0.4C330,216.9,329.6,219.3,328.3,221.2z"/>
<path class="st6" d="M288.5,313.6l11.6-19.4l-3.6-2.1l-11.6,19.4c5.3,4.7,8.1,9,6.8,11.3c-2,3.4-12.7,0.7-24.4-5.9
	c0.6,0.4,1.2,0.7,1.8,1.1c12.3,7.4,24,10.5,26.1,6.9C296.6,322.7,293.8,318.3,288.5,313.6z"/>
</svg>
