<svg id="Layer_1" enable-background="new 0 0 512 512" height="512" viewBox="0 0 512 512" width="512" xmlns="http://www.w3.org/2000/svg"><g><path d="m24.572 347.569h462.855c8.785-25.235 13.574-52.342 13.574-80.571 0-135.311-109.691-245.002-245.002-245.002s-245.001 109.691-245.001 245.002c0 28.229 4.789 55.335 13.574 80.571z" fill="#4fabf7"/><path d="m24.572 79.25v268.319c17.487 50.234 50.869 93.017 94.116 122.345l274.592.021c43.262-29.328 76.656-72.12 94.147-122.366v-268.319z" fill="#d3dcfb"/><path d="m24.572 347.569c17.487 50.234 50.869 93.017 94.116 122.345l102.646.008v-299.018c-34.691-3.543-26.114-33.957-26.114-33.957-35.305-15.5-16.695-55.698-16.695-55.698-.922-.658-1.745-1.326-2.509-2h-151.444z" fill="#bec8f7"/><path d="m138.927 51.47c0 16.447-13.333 29.78-29.78 29.78h378.28v-29.78z" fill="#e9efff"/><path d="m109.147 81.25h69.378c-17.333-12.364-5.5-28-5.5-28-.599-.599-1.128-1.193-1.604-1.78h-32.494c0 16.447-13.333 29.78-29.78 29.78z" fill="#d3dcfb"/><path d="m24.572 51.47v29.78h86.575c16.447 0 29.78-13.333 29.78-29.78z" fill="#4fabf7"/><path d="m470.385 0h-428.77c-9.412 0-17.043 7.63-17.043 17.043v36.207h462.855v-36.207c0-9.413-7.63-17.043-17.042-17.043z" fill="#3c58a0"/><path d="m173.025 0h-131.41c-9.412 0-17.043 7.63-17.043 17.043v36.207h148.453c-10.349-10.349-1.576-19.125-1.576-19.125v-15c-9.573-9.574 1.576-19.125 1.576-19.125z" fill="#2a428c"/><circle cx="68.732" cy="26.625" fill="#ff4155" r="10.502"/><circle cx="99.578" cy="26.625" fill="#ffdd40" r="10.502"/><circle cx="130.425" cy="26.625" fill="#4ce088" r="10.502"/><g><path d="m393.002 34.125h-221.552c-4.142 0-7.5-3.357-7.5-7.5s3.358-7.5 7.5-7.5h221.552c4.142 0 7.5 3.357 7.5 7.5s-3.358 7.5-7.5 7.5z" fill="#1c2e7a"/></g><g><path d="m447.05 34.125h-19.119c-4.142 0-7.5-3.357-7.5-7.5s3.358-7.5 7.5-7.5h19.119c4.142 0 7.5 3.357 7.5 7.5s-3.358 7.5-7.5 7.5z" fill="#1c2e7a"/></g><path d="m118.606 469.873c.021.014.042.027.062.041l274.633.021c.03-.021.062-.041.092-.061 37.82-36.186 61.376-87.158 61.376-143.634 0-109.777-88.992-198.769-198.768-198.769-109.777 0-198.769 88.992-198.769 198.769-.001 56.475 23.555 107.446 61.374 143.633z" fill="#e9efff"/><path d="m221.334 170.904c-34.654-3.539-26.133-33.891-26.115-33.955-80.046 25.682-137.989 100.714-137.989 189.29 0 56.476 23.556 107.447 61.375 143.634.021.014.042.027.062.041l102.666.008v-299.018z" fill="#d3dcfb"/><path d="m314.847 269.694c.141 7.736-.623 15.66-1.45 20.943-3.904 17.206-9.54 32.187-16.75 44.525-3.269 5.594-7.347 10.679-12.122 15.114l-.612.568v3.854c0 3.994 1.552 7.688 4.195 11.09 14.794-.894 27.371-3.891 37.284-7.304 11.933-4.109 17.157-18.256 10.637-29.062-15.352-25.446-13.064-59.727-13.064-59.727h-8.118z" fill="#2a428c"/><path d="m336.029 329.421c-1.44-2.387-2.725-4.852-3.871-7.359-17.868 10.365-25.007-4.321-25.007-4.321s-.461-.677-1.308-1.935c-2.7 7.017-5.768 13.489-9.196 19.356-3.269 5.594-7.347 10.679-12.122 15.114l-.612.568v3.854c0 3.994 1.552 7.688 4.195 11.09 14.794-.894 27.371-3.891 37.284-7.304 11.933-4.11 17.157-18.256 10.637-29.063z" fill="#1c2e7a"/><path d="m185.648 358.483c9.913 3.413 22.49 6.41 37.284 7.304 2.643-3.402 4.195-7.096 4.195-11.09v-4.733l-.585-.565c-4.37-4.218-8.136-9.009-11.191-14.238-7.214-12.346-12.848-27.321-16.746-44.508-.854-4.983-1.626-13.037-1.454-20.96h-9.075s2.288 34.281-13.064 59.727c-6.521 10.808-1.297 24.954 10.636 29.063z" fill="#1c2e7a"/><g><path d="m290.663 170.904c-9.198-4.746-20.635-8.038-34.664-8.038s-25.467 3.293-34.664 8.038c-20.135 10.388-32.542 31.014-32.542 53.271v27.455l.001.009c3.176-.074 6.689.966 8.952 2.475.834-2.729 1.975-5.092 3.518-6.83 1.389-1.565 2.26-3.502 2.322-5.573.237-7.926 2.316-26.657 16.274-33.826 3.889-1.997 8.64-.474 10.824 3.313 8.407 14.577 28.019 33.785 71.632 25.599 3.093-.581 6 1.719 6.096 4.865 0 .016.001.033.001.049.062 2.071.933 4.008 2.322 5.573 1.543 1.738 2.684 4.101 3.518 6.83 2.263-1.509 5.776-2.549 8.952-2.475l.001-.009v-27.455c-.001-22.256-12.408-42.883-32.543-53.271z" fill="#2a428c"/></g><path d="m255.16 231.902c-21.616-41.295 18.996-67.023 18.996-67.023-5.502-1.273-11.538-2.013-18.157-2.013-14.029 0-25.467 3.293-34.664 8.038-20.135 10.388-32.542 31.014-32.542 53.271v27.455l.001.009c3.176-.074 6.689.966 8.952 2.475.834-2.729 1.975-5.092 3.518-6.83 1.389-1.565 2.26-3.502 2.322-5.573.236-7.926 2.316-26.657 16.274-33.826 3.889-1.997 8.64-.474 10.824 3.313 4.545 7.88 12.376 17.106 25.492 22.634-.341-.644-.68-1.287-1.016-1.93z" fill="#1c2e7a"/><path d="m197.192 290.923s-3.645-23.07.553-36.809c-3.809-2.539-11.169-3.779-14.48-.543-6.777 6.626-1.812 16.631.565 22.951.73 1.94 1.2 3.903 1.413 5.87.463 4.272 2.779 10.526 12.384 10.378-.145-.615-.293-1.221-.435-1.847z" fill="#fd995b"/><path d="m328.732 253.572c-3.31-3.236-10.67-1.996-14.48.543 4.198 13.739.553 36.809.553 36.809-.142.626-.29 1.232-.436 1.847 9.605.147 11.922-6.106 12.384-10.378.213-1.967.684-3.929 1.413-5.87 2.377-6.321 7.343-16.326.566-22.951z" fill="#fcad6d"/><path d="m195.069 384.538c10.706 18.321 26.918 32.57 46.885 41.209 8.943 3.868 19.197 3.868 28.139 0 19.967-8.639 36.179-22.888 46.885-41.209.408-.699.807-1.413 1.208-2.124-16.787-6.473-32.358-15.681-32.358-27.716 0-4.212 0-2.95 0-5.677-7.343 6.565-19.936 14.929-30.307 15.18-10.371-.251-22.965-8.615-30.308-15.18 0 7.829 2.078 17.253-22.53 29.201-2.841 1.379-5.876 2.677-8.99 3.894.455.811.911 1.625 1.376 2.422z" fill="#fcad6d"/><path d="m255.52 364.201c-10.371-.251-22.965-8.615-30.308-15.18 0 7.829 2.078 17.253-22.53 29.201-2.841 1.379-5.876 2.677-8.99 3.894.456.812.912 1.625 1.377 2.422 7.452 12.753 17.578 23.526 29.775 31.814.758-.404 1.518-.811 2.283-1.224 21.281-11.5 27.588-33.789 29.055-50.974-.219.012-.444.041-.662.047z" fill="#fd995b"/><path d="m308.891 241.697c-.03-1.008-.094-2.227-.211-3.589-.354-.511-.777-.979-1.273-1.378-1.505-1.21-3.462-1.699-5.357-1.344-41.586 7.805-61.084-9.236-70.123-24.905-1.651-2.863-4.511-4.586-7.541-4.868-2.566.712-4.924 1.778-7.064 3.203-12.186 8.114-14 25.698-14.214 32.882-.056 1.888-.817 3.71-2.202 5.269-7.631 8.598-5.96 33.719-4.179 44.062 3.942 17.402 9.653 32.575 16.971 45.1 7.429 12.715 18.681 22.604 32.537 28.599 6.207 2.684 13.323 2.684 19.528 0 13.857-5.995 25.108-15.884 32.537-28.599 7.317-12.521 13.028-27.695 16.979-45.131 1.71-10.872 3.531-35.334-4.186-44.031-1.384-1.56-2.146-3.383-2.202-5.27z" fill="#f9ba8f"/><path d="m264.697 336.128c-7.318-12.525-13.029-27.698-16.971-45.1-1.781-10.342-3.452-35.463 4.179-44.062 1.385-1.56 2.146-3.382 2.202-5.269.07-2.37.319-5.875 1.053-9.795-11.415-5.235-18.664-13.501-23.233-21.421-1.651-2.863-4.511-4.586-7.541-4.868-2.566.712-4.924 1.778-7.064 3.203-12.186 8.114-14 25.698-14.214 32.882-.056 1.888-.817 3.71-2.202 5.269-7.631 8.598-5.96 33.719-4.179 44.062 3.942 17.402 9.653 32.575 16.971 45.1 7.429 12.715 18.681 22.604 32.537 28.599 6.207 2.684 13.323 2.684 19.528 0 5.721-2.475 10.989-5.624 15.736-9.351-6.751-5.302-12.44-11.783-16.802-19.249z" fill="#fcad6d"/><path d="m398.514 424.166c-11.137-22.274-30.685-28.494-39.59-30.205-2.295-.618-24.1-4.761-43.301-12.56-.556.999-1.117 1.991-1.688 2.967-10.176 17.414-25.585 30.958-44.564 39.169-8.499 3.677-18.246 3.676-26.746 0-18.978-8.211-34.388-21.755-44.563-39.169-.626-1.073-1.245-2.16-1.855-3.261-19.682 8.114-43.989 12.828-44.091 12.854-8.906 1.71-28.453 7.93-39.591 30.205-2.696 5.392-4.853 12.031-6.545 19.575-.79 3.521-1.42 7.073-1.916 10.642 4.588 5.434 9.464 10.618 14.601 15.53 39.173 26.565 86.44 42.087 137.335 42.087 50.882 0 98.138-15.514 137.304-42.065 4.839-4.626 9.453-9.487 13.807-14.577-.512-3.898-1.19-7.775-2.052-11.617-1.693-7.544-3.849-14.183-6.545-19.575z" fill="#fc90ce"/><path d="m227.127 415.128c.005-.002.009-.005.014-.008-11.939-7.945-21.84-18.362-29.08-30.752-.626-1.073-1.245-2.16-1.855-3.261-19.682 8.114-43.989 12.828-44.091 12.854-8.906 1.71-28.453 7.93-39.591 30.205-2.696 5.392-4.853 12.031-6.545 19.575-.79 3.521-1.42 7.073-1.916 10.642 4.588 5.434 9.464 10.618 14.601 15.53 13.226 8.969 27.379 16.674 42.279 22.953 3.667-50.583 31.2-58.833 66.184-77.738z" fill="#f964b2"/><path d="m423.386 185.052-5.139 5.962c-1.112 1.29-1.465 3.07-.93 4.688l2.472 7.462c.756 2.283-.277 4.776-2.427 5.855l-7.025 3.525c-1.524.765-2.534 2.274-2.659 3.975l-.579 7.846c-.177 2.395-2.081 4.3-4.476 4.476l-7.846.579c-1.7.126-3.21 1.135-3.975 2.659l-3.525 7.025c-1.079 2.15-3.572 3.183-5.855 2.426l-7.462-2.472c-1.617-.536-3.397-.183-4.688.93l-5.961 5.139c-1.818 1.567-4.51 1.567-6.328 0l-5.962-5.139c-1.29-1.112-3.07-1.465-4.688-.93l-7.462 2.472c-2.283.756-4.776-.277-5.855-2.426l-3.525-7.025c-.765-1.524-2.274-2.534-3.975-2.659l-7.846-.579c-2.395-.177-4.299-2.081-4.476-4.476l-.579-7.846c-.125-1.7-1.135-3.21-2.659-3.975l-7.025-3.525c-2.15-1.079-3.183-3.572-2.426-5.855l2.472-7.462c.536-1.617.183-3.397-.93-4.688l-5.139-5.961c-1.567-1.818-1.567-4.51 0-6.328l5.139-5.962c1.112-1.29 1.465-3.07.93-4.688l-2.472-7.462c-.756-2.283.277-4.776 2.427-5.855l7.025-3.525c1.524-.765 2.534-2.274 2.659-3.975l.579-7.846c.177-2.395 2.081-4.299 4.476-4.476l7.846-.579c1.7-.126 3.21-1.135 3.975-2.659l3.525-7.025c1.079-2.15 3.572-3.183 5.855-2.426l7.462 2.472c1.617.536 3.397.183 4.688-.93l5.961-5.139c1.818-1.567 4.51-1.567 6.328 0l5.962 5.139c1.291 1.112 3.07 1.465 4.688.93l7.462-2.472c2.283-.756 4.776.277 5.855 2.426l3.526 7.025c.765 1.524 2.274 2.534 3.974 2.659l7.846.579c2.395.177 4.299 2.081 4.476 4.476l.579 7.846c.125 1.7 1.135 3.21 2.659 3.975l7.025 3.525c2.15 1.079 3.183 3.572 2.427 5.855l-2.472 7.462c-.536 1.617-.183 3.397.93 4.688l5.139 5.961c1.566 1.818 1.566 4.51-.001 6.328z" fill="#4fabf7"/><path d="m346.335 124.718-7.462-2.472c-2.284-.756-4.776.277-5.855 2.426l-3.525 7.025c-.765 1.524-2.274 2.534-3.975 2.659l-7.846.579c-2.395.177-4.3 2.081-4.476 4.476l-.579 7.846c-.125 1.7-1.135 3.21-2.659 3.975l-7.025 3.525c-2.15 1.079-3.183 3.571-2.427 5.855l2.472 7.462c.536 1.617.183 3.397-.93 4.688l-5.139 5.962c-1.567 1.818-1.567 4.51 0 6.328l5.138 5.961c1.113 1.29 1.466 3.07.93 4.688l-2.472 7.462c-.757 2.283.277 4.776 2.427 5.855l7.024 3.525c1.524.765 2.534 2.274 2.659 3.975l.579 7.846c.177 2.395 2.081 4.299 4.476 4.476l7.846.579c1.7.125 3.21 1.135 3.975 2.659l3.525 7.025c1.079 2.15 3.572 3.183 5.855 2.426l7.462-2.472c1.617-.536 3.397-.183 4.688.93l5.961 5.139c1.818 1.567 4.51 1.567 6.328 0l5.961-5.139c1.29-1.112 3.07-1.465 4.688-.93l7.462 2.472c2.283.756 4.776-.277 5.855-2.426l3.525-7.025c.765-1.524 2.274-2.534 3.975-2.659l7.846-.579c2.395-.177 4.3-2.081 4.476-4.476-39.676-7.083-27.296-37.638-27.296-37.638l-8.674-13.84c-38.061-9.728-20.108-49.098-20.108-49.098-1.288 1.113-3.068 1.466-4.685.93z" fill="#1886ea"/><g><path d="m356.688 206.545c-2.111 0-4.136-.839-5.629-2.331l-17.649-17.65c-3.108-3.109-3.108-8.148 0-11.257 3.11-3.108 8.149-3.106 11.257 0l12.02 12.021 22.83-22.83c3.109-3.108 8.148-3.108 11.257 0 3.108 3.109 3.108 8.148 0 11.257l-28.459 28.459c-1.492 1.492-3.516 2.331-5.627 2.331z" fill="#e9efff"/></g><path d="m373.194 482.191c-1.389-19.888-9.319-32.572-16.61-40.131-4.647-4.818-12.809-1.462-12.809 5.231v48.502c10.149-3.896 19.972-8.446 29.419-13.602z" fill="#f964b2"/></g></svg>