<?xml version="1.0" encoding="utf-8"?>
<!-- Generator: Adobe Illustrator 26.2.1, SVG Export Plug-In . SVG Version: 6.00 Build 0)  -->
<svg version="1.1" id="Layer_1" xmlns="http://www.w3.org/2000/svg" xmlns:xlink="http://www.w3.org/1999/xlink" x="0px" y="0px"
	 viewBox="0 0 983.9 586" style="enable-background:new 0 0 983.9 586;" xml:space="preserve">
<style type="text/css">
	.st0{fill:#F2F2F2;}
	.st1{fill:#FFFFFF;}
	.st2{fill:#3F3D56;}
	.st3{fill:#CCCCCC;}
	.st4{fill:#FFB8B8;}
	.st5{fill:#2F2E41;}
	.st6{fill:#444444;}
	.st7{fill:#0C55CD;}
</style>
<path class="st0" d="M819.2,581.3c-9-7.6-14.5-19.6-13-31.3s10.3-22.4,21.8-24.9s24.6,4.4,28.1,15.6c1.9-21.7,4.1-44.3,15.7-62.7
	c10.4-16.7,28.5-28.7,48.1-30.8s40.2,5.9,52.4,21.4s15.2,37.9,6.7,55.7c-6.3,13.1-17.9,22.8-30.1,30.7
	c-39.3,25.4-86.5,35.7-132.8,29"/>
<path class="st1" d="M953,453.6c-16.2,13.2-31,27.9-44.3,44c-20.8,25.1-37.6,53.2-49.9,83.3c-0.9,2.2,2.7,3.2,3.6,1
	c20.1-49,52.1-92.2,93.2-125.6C957.4,454.7,954.8,452.1,953,453.6L953,453.6z"/>
<path class="st0" d="M483.5,37c0,0.6-0.4,1-1,1H482c-0.7-0.6-1.5-1.3-2.2-2h2.6C483.1,36,483.5,36.4,483.5,37z"/>
<path class="st2" d="M507.5,0h-251c-3.9,0-7,3.1-7,7v136c0,3.9,3.1,7,7,7h251c3.9,0,7-3.1,7-7V7C514.5,3.1,511.4,0,507.5,0z
	 M512.5,143c0,2.8-2.2,5-5,5h-251c-2.8,0-5-2.2-5-5V7c0-2.8,2.2-5,5-5h251c2.8,0,5,2.2,5,5V143z"/>
<path class="st3" d="M355.2,59.2c-3-7.2-7.6-13.2-14.4-17.1c-7.1-4.2-15.2-7.6-23.4-8.9c-8.2-1.2-16.5-0.7-24.5,1.4
	c-1,0.3-2.1,0.6-3.2,0.9c-2.8,0.7-5.5,1.9-7.9,3.5c-0.1,0.1-0.2,0.1-0.2,0.2c-3.1,2.3-5.2,6-7,9.4c-1.6,3.2-2.7,6.8-1.8,10.4
	c1,3.3,3,6.2,5.8,8.2c1.9,1.5,4.5,3.4,7,3.5c0.6,0,1.2-0.1,1.8-0.3c0.2-0.1,0.4-0.1,0.5-0.2c1,0.3,2.1,0.5,3.2,0.5
	c4.4,0.2,8.8-1.7,13.3-3.2c1.1-0.4,2.1-0.7,3.2-0.9c2-0.4,4-0.4,5.9,0.2c0.4,0.1,0.7,0.2,1.1,0.4c3.3,1.6,6.2,4.1,8.1,7.2
	c1.9,2.8,3.2,6.1,5.3,8.8c2.1,2.8,5.3,4.7,8.9,5c5.2,0.6,11.8,0.3,16.3-2.9c1.2-0.8,2.3-1.9,3.1-3.1c0.1-0.1,0.2-0.2,0.2-0.4
	C360.8,74.9,358.1,66,355.2,59.2z M286.1,48.7c1,0.1,2,0.2,3,0.3c-1.9,0.3-3.7,1.2-5.2,2.4c-0.6,0.5-1.1,1-1.6,1.6c0,0,0-0.1,0-0.1
	C283,51,284.4,49.5,286.1,48.7L286.1,48.7z M346.4,74.1c0.2,0,0.4-0.1,0.6-0.1c0.3,0,0.6-0.2,0.8-0.3c0,0,0,0.1,0,0.1
	c0,0.1,0,0.3,0,0.4c-0.1,0.1-0.1,0.2-0.1,0.2C347.2,74.3,346.8,74.2,346.4,74.1L346.4,74.1z M343.6,49.7c2.2,2.1,4.1,4.5,5.6,7.2
	c-1.8-2.2-3.7-4.2-5.8-6C343.5,50.6,343.6,50.2,343.6,49.7L343.6,49.7z M341.2,78.1c-0.1,0.1-0.2,0.3-0.2,0.5c-0.3,0-0.5,0-0.8,0
	H340c0,0,0-0.1,0-0.1c-0.1-0.2-0.1-0.4-0.2-0.5C340.3,78,340.7,78.1,341.2,78.1L341.2,78.1z M319.8,55.7c0-0.2,0-0.4,0-0.6
	c0.2,0.2,0.5,0.3,0.8,0.3c0,0,0.1,0,0.1,0c0.2,0.1,0.4,0.2,0.6,0.3l-0.1,0.1C320.7,55.8,320.3,55.7,319.8,55.7L319.8,55.7z
	 M335.7,50.7L335.7,50.7c-0.7-0.4-1.4-0.8-2-1.2C334.3,49.9,335,50.3,335.7,50.7L335.7,50.7z M332,69.4c-0.1,0.1-0.2,0.2-0.3,0.4
	c-0.1-0.1-0.1-0.1-0.1-0.2C331.7,69.5,331.8,69.5,332,69.4L332,69.4z M323,49.9c-0.2-0.2-0.5-0.3-0.7-0.4c-1.3-0.5-2.6-0.9-4-1.2
	c-0.2-0.2-0.4-0.4-0.6-0.6c1.1,0.2,2.3,0.5,3.4,0.9c1.4,0.5,2.8,1,4.1,1.6C324.5,50,323.8,49.9,323,49.9L323,49.9z M315.4,37.3
	c2.9,0.4,5.7,1,8.5,1.9c-0.3-0.1-0.6-0.1-0.8-0.2c-2.7-0.6-5.4-1.2-8.1-1.8C315.1,37.3,315.2,37.3,315.4,37.3L315.4,37.3z"/>
<path class="st2" d="M326.2,115c-2.5-0.1-5.7-0.2-8.1-1.9c-1.5-1.1-2.4-2.8-2.4-4.6c-0.1-1.3,0.4-2.6,1.4-3.4
	c1.5-1.1,3.4-1.4,5.1-0.7l-2.1-15l1.5-0.2l2.4,17.7l-1.3-0.6c-1.5-0.7-3.5-1-4.7,0c-0.6,0.6-0.9,1.4-0.9,2.2
	c0.1,1.4,0.7,2.6,1.8,3.5c1.9,1.4,4.4,1.6,7.2,1.6L326.2,115z"/>
<rect x="304.4" y="90.5" class="st2" width="8.2" height="1.5"/>
<rect x="330.4" y="90.5" class="st2" width="8.2" height="1.5"/>
<path class="st2" d="M290.1,69.4c-6.6-0.8-11.7-7.1-12.3-13.5c-0.7-7.7,3.8-14.9,9.9-19.2c6.4-4.5,14.4-6.4,22.1-6.8
	c15-0.7,29.8,4.1,41.5,13.7c5.8,4.8,11.2,10.9,13.2,18.3c1.8,6.4,0.3,13.7-4.8,18.2c-2.6,2.2-6,3.3-9.4,2.9c-4-0.4-7.7-2.5-10.9-4.8
	c-6.2-4.5-11.3-10.8-18.9-13.2c-5.6-1.7-12.8-0.2-16.1,4.8c-0.8,1.1-1.3,2.5-1.5,3.8c-0.1,0.6,0.2,1.2,0.8,1.4
	c0.6,0.2,1.2-0.2,1.4-0.8c0.9-6.3,8.7-8.7,14.1-7.2c8,2.1,13.3,9.2,19.8,13.7c3.4,2.5,7.4,4.1,11.5,4.6c3.6,0.3,7.2-0.8,10.1-3.1
	c5.6-4.4,7.7-12,6.5-18.8c-1.4-7.9-6.7-14.7-12.6-19.9c-11.8-10.5-27.2-16.2-43-15.9c-8.1,0.2-16.5,1.9-23.4,6.1
	c-6.7,4.1-11.9,11.1-12.6,19.1c-0.6,7.1,3.2,14.5,9.7,17.6c1.5,0.7,3.2,1.2,4.9,1.4C291.6,71.9,291.6,69.6,290.1,69.4L290.1,69.4z"
	/>
<path class="st2" d="M483.5,37c0,0.6-0.4,1-1,1h-82c-0.6,0-1-0.4-1-1s0.4-1,1-1h82C483.1,36,483.5,36.4,483.5,37z"/>
<path class="st2" d="M482.5,53h-82c-0.6,0-1-0.4-1-1s0.4-1,1-1h82c0.6,0,1,0.4,1,1S483.1,53,482.5,53z"/>
<path class="st2" d="M482.5,68h-82c-0.6,0-1-0.4-1-1s0.4-1,1-1h82c0.6,0,1,0.4,1,1S483.1,68,482.5,68z"/>
<path class="st2" d="M482.5,83h-82c-0.6,0-1-0.4-1-1s0.4-1,1-1h82c0.6,0,1,0.4,1,1S483.1,83,482.5,83z"/>
<path class="st2" d="M482.5,98h-82c-0.6,0-1-0.4-1-1s0.4-1,1-1h82c0.6,0,1,0.4,1,1S483.1,98,482.5,98z"/>
<path class="st2" d="M482.5,113h-82c-0.6,0-1-0.4-1-1s0.4-1,1-1h82c0.6,0,1,0.4,1,1S483.1,113,482.5,113z"/>
<path class="st4" d="M186.1,246.6c-2.8,0-5.5-1-7.6-2.9c-2.3-2.1-3.7-5.1-3.8-8.2l-44.4-32.3c-5.1-3.7-6.2-10.9-2.5-16
	c0.4-0.5,0.7-0.9,1.2-1.4l33-33c3.8-3.8,10-3.8,13.8,0c1.8,1.8,2.9,4.3,2.9,6.9c-0.3,5.1-2.3,9.9-5.6,13.6l-22.4,22.4l35.2,28.1
	c0.1,0,0.2,0,0.3,0c6.3,0,11.4,5.1,11.4,11.4c0,5.8-4.3,10.7-10.1,11.3C187,246.5,186.6,246.6,186.1,246.6z"/>
<polygon class="st4" points="238.9,437.2 250.8,432.7 239.3,384.7 221.7,391.3 "/>
<path class="st5" d="M277.9,435.2l-37.4,14l0,0l-5.4-14.5l0,0l23.5-8.8c7.7-2.9,16.3,1,19.2,8.7L277.9,435.2L277.9,435.2z"/>
<polygon class="st4" points="131.7,439.4 144.5,439.4 150.5,390.3 131.7,390.3 "/>
<path class="st5" d="M169,451.2l-39.9,0l0,0l0-15.4l0,0l25.1,0c8.2,0,14.9,6.7,14.9,14.9L169,451.2L169,451.2z"/>
<path class="st6" d="M145.5,426c-0.1,0-0.3,0-0.4,0l-13.5-1.3c-2.3-0.2-4-2.1-4.1-4.4c-0.8-29.2-2.7-176.4,35.2-210.2
	c0.7-0.6,1.5-0.9,2.3-1.1v0c6.9-0.9,30-3.2,39.8,6.6c0.6,0.6,1.1,1.4,1.2,2.3L249,416.4c0.5,2.4-1,4.8-3.4,5.3
	c-0.1,0-0.3,0.1-0.4,0.1l-16.5,2.1c-2.5,0.3-4.7-1.4-5-3.9c0,0,0-0.1,0-0.1c-1.6-15.9-11.5-97-44.4-125.7c-0.9-0.8-2.2-1.1-3.3-0.7
	c-1.1,0.3-2,1.2-2.4,2.3c-6.1,20-25.8,88-23.6,125.5c0.2,2.5-1.7,4.6-4.2,4.8C145.6,426,145.6,426,145.5,426L145.5,426z"/>
<circle class="st4" cx="171.4" cy="104.4" r="24.6"/>
<path class="st7" d="M147.3,150.7c0,0,22.8-27,41.5-5.2l0,0c12,14,18.4,32,17.8,50.4l-0.7,23.7l-43-6.7L147.3,150.7z"/>
<path class="st4" d="M207.2,202.9c-0.2,0-0.4,0-0.5,0c-3.7-0.2-7.2-1.9-9.5-4.9l-27.9-35.6c-3.3-4.2-2.6-10.3,1.7-13.7
	c2-1.6,4.6-2.3,7.2-2l3.9,0.5c2.5,0.4,4.8,1.7,6.5,3.6l22,28.1l32.1-31.6c0-0.1,0-0.2,0-0.3c0.8-6.2,6.4-10.7,12.7-9.9
	c6.2,0.8,10.7,6.4,9.9,12.7c-0.7,6.1-6.2,10.5-12.4,10l-36.4,39.1C214.1,201.4,210.7,202.9,207.2,202.9z"/>
<path class="st5" d="M175.4,108.7l10.6-12.4c2.7-3.2,5.6-6.7,5.9-10.9c0.4-4.6-2.4-9-6.2-11.6s-8.5-3.6-13.1-3.9
	c-8.5-0.7-17.5,0.7-24.5,5.6s-11.6,13.7-9.9,22.1c1.3,6.6,6.3,12.9,4.4,19.4c-2.1,7.1-10.7,9.2-17.8,11.3
	c-11.8,3.5-23.1,10.5-29.4,21.2s-6.2,25.4,2.1,34.6c5.4,5.9,13.4,8.9,21.4,9.4s15.9-1.4,23.5-4c7-2.4,13.9-5.4,19.4-10.3
	s9.4-11.9,9.3-19.3c-0.2-7-3.9-13.4-5.5-20.3c-2.5-11.7,1.5-23.8,10.4-31.7"/>
<path class="st2" d="M687.5,357h-251c-3.9,0-7-3.1-7-7V214c0-3.9,3.1-7,7-7h251c3.9,0,7,3.1,7,7v136
	C694.5,353.9,691.4,357,687.5,357z M436.5,209c-2.8,0-5,2.2-5,5v136c0,2.8,2.2,5,5,5h251c2.8,0,5-2.2,5-5V214c0-2.8-2.2-5-5-5H436.5
	z"/>
<path class="st7" d="M535.2,266.2c-3-7.2-7.6-13.2-14.4-17.1c-7.1-4.2-15.2-7.6-23.4-8.9c-8.2-1.2-16.5-0.7-24.5,1.4
	c-3.8,1-8.1,2.2-11.3,4.5c-3.1,2.3-5.2,6-7,9.4c-1.7,3.2-2.7,6.8-1.8,10.4c1,3.3,3,6.2,5.8,8.2c2.4,1.9,5.7,4.3,8.8,3.2
	c0.2-0.1,0.4-0.2,0.5-0.3c5.5,1.7,10.9-0.8,16.5-2.6c3.4-1.1,6.8-1.7,10.2-0.3c3.3,1.6,6.2,4.1,8.1,7.2c1.9,2.8,3.2,6.1,5.3,8.8
	c2.1,2.8,5.3,4.7,8.8,5c6.8,0.8,15.8,0.1,19.7-6.3C540.8,281.9,538.1,273,535.2,266.2z M466.1,255.7c1,0.1,2,0.2,3,0.3
	c-1.9,0.3-3.7,1.2-5.2,2.4c-0.6,0.5-1.1,1-1.6,1.6c0,0,0-0.1,0-0.1C463,258,464.4,256.5,466.1,255.7z M499.8,262.1
	c0.2,0.2,0.5,0.3,0.8,0.3c0,0,0.1,0,0.1,0c0.2,0.1,0.4,0.2,0.6,0.3c0,0,0,0.1-0.1,0.1c-0.5,0-0.9-0.1-1.4-0.1
	C499.8,262.5,499.9,262.3,499.8,262.1L499.8,262.1z M512,276.4c-0.1,0.1-0.2,0.2-0.3,0.4c0-0.1-0.1-0.1-0.1-0.2
	C511.7,276.5,511.8,276.5,512,276.4L512,276.4z M519.8,284.9c0.5,0.1,0.9,0.1,1.4,0.2c-0.1,0.1-0.1,0.3-0.2,0.5c-0.3,0-0.6,0-1,0
	L519.8,284.9z M526.4,281.1l0.5-0.1c0.3,0,0.6-0.2,0.8-0.3c0,0,0,0.1,0,0.1c0,0.1,0,0.2,0,0.4c0,0.1-0.1,0.2-0.1,0.2
	C527.3,281.3,526.8,281.2,526.4,281.1L526.4,281.1z M503,256.9c-0.2-0.2-0.5-0.3-0.7-0.4c-1.3-0.5-2.6-0.9-4-1.2
	c-0.2-0.2-0.4-0.4-0.6-0.6c1.1,0.2,2.3,0.5,3.4,0.9c1.4,0.5,2.8,1,4.2,1.6C504.5,257,503.8,256.9,503,256.9z M515.6,257.7
	c-0.7-0.4-1.3-0.8-2-1.2C514.3,256.9,515,257.3,515.6,257.7L515.6,257.7z M529.2,263.9c-1.8-2.2-3.7-4.2-5.8-6
	c0.2-0.4,0.2-0.8,0.2-1.2C525.8,258.8,527.7,261.3,529.2,263.9z M503.9,246.3c-0.3-0.1-0.6-0.1-0.8-0.2c-2.7-0.6-5.3-1.2-8.1-1.8
	c0.1,0,0.3,0,0.4,0C498.3,244.7,501.1,245.4,503.9,246.3z"/>
<path class="st2" d="M506.2,322c-2.5-0.1-5.7-0.2-8.1-1.9c-1.5-1.1-2.4-2.8-2.4-4.6c-0.1-1.3,0.4-2.6,1.4-3.4
	c1.5-1.1,3.4-1.4,5.1-0.7l-2.1-15l1.5-0.2l2.4,17.7l-1.3-0.6c-1.5-0.7-3.5-1-4.7,0c-0.6,0.6-0.9,1.4-0.9,2.2
	c0.1,1.4,0.7,2.6,1.8,3.5c1.9,1.4,4.4,1.6,7.2,1.6L506.2,322z"/>
<rect x="484.4" y="297.5" class="st2" width="8.2" height="1.5"/>
<rect x="510.4" y="297.5" class="st2" width="8.2" height="1.5"/>
<path class="st2" d="M470.1,276.4c-6.6-0.8-11.7-7.1-12.3-13.5c-0.7-7.7,3.8-14.9,9.9-19.2c6.4-4.5,14.4-6.4,22.1-6.8
	c15-0.7,29.8,4.1,41.5,13.7c5.8,4.8,11.2,10.9,13.2,18.3c1.8,6.4,0.3,13.7-4.8,18.2c-2.6,2.2-6,3.3-9.4,2.9c-4-0.4-7.7-2.5-10.9-4.8
	c-6.2-4.5-11.3-10.8-18.9-13.2c-5.6-1.7-12.8-0.2-16.1,4.8c-0.8,1.1-1.3,2.5-1.5,3.8c-0.1,0.6,0.2,1.2,0.8,1.4
	c0.6,0.2,1.2-0.2,1.4-0.8c0.9-6.3,8.7-8.7,14.1-7.2c8,2.1,13.3,9.2,19.8,13.7c3.4,2.5,7.4,4.1,11.5,4.6c3.6,0.3,7.2-0.8,10.1-3.1
	c5.6-4.4,7.7-12,6.5-18.8c-1.4-7.9-6.7-14.7-12.6-19.9c-11.8-10.5-27.2-16.2-43-15.9c-8.1,0.2-16.5,1.9-23.4,6.1
	c-6.7,4.1-11.9,11.1-12.6,19.1c-0.6,7.1,3.2,14.5,9.7,17.6c1.5,0.7,3.2,1.2,4.9,1.4C471.6,278.9,471.6,276.6,470.1,276.4
	L470.1,276.4z"/>
<path class="st2" d="M662.5,245h-82c-0.6,0-1-0.4-1-1s0.4-1,1-1h82c0.6,0,1,0.4,1,1S663.1,245,662.5,245z"/>
<path class="st2" d="M662.5,260h-82c-0.6,0-1-0.4-1-1c0-0.6,0.4-1,1-1h82c0.6,0,1,0.4,1,1C663.5,259.6,663.1,260,662.5,260z"/>
<path class="st2" d="M662.5,275h-82c-0.6,0-1-0.4-1-1c0-0.6,0.4-1,1-1h82c0.6,0,1,0.4,1,1C663.5,274.6,663.1,275,662.5,275z"/>
<path class="st2" d="M662.5,290h-82c-0.6,0-1-0.4-1-1c0-0.6,0.4-1,1-1h82c0.6,0,1,0.4,1,1C663.5,289.6,663.1,290,662.5,290z"/>
<path class="st2" d="M662.5,305h-82c-0.6,0-1-0.4-1-1c0-0.6,0.4-1,1-1h82c0.6,0,1,0.4,1,1C663.5,304.6,663.1,305,662.5,305z"/>
<path class="st2" d="M662.5,320h-82c-0.6,0-1-0.4-1-1c0-0.6,0.4-1,1-1h82c0.6,0,1,0.4,1,1C663.5,319.6,663.1,320,662.5,320z"/>
<circle class="st4" cx="815.7" cy="185.4" r="26.2"/>
<polygon class="st4" points="737.5,572 725,568 734.4,518 752.8,523.9 "/>
<path class="st5" d="M716.7,561.5l24.6,7.9l0,0l-4.8,15.2l0,0L697.2,572l0,0l0.2-0.6C700,563.3,708.6,558.9,716.7,561.5L716.7,561.5
	z"/>
<polygon class="st4" points="828.3,571.8 815.2,571.8 808.9,521.2 828.3,521.2 "/>
<path class="st5" d="M805.2,568h25.9l0,0v15.9l0,0h-41.2l0,0v-0.6C789.9,574.9,796.8,568,805.2,568z"/>
<path class="st6" d="M827.9,555.4l-4.4-0.7c-13.4-2-14.2-2.1-16.3-3.1c-1.1-0.5-1.2-7.7-0.5-48.3c0.5-29.8,1.1-66.8-0.1-86.7
	c-0.1-1.9-1.8-3.4-3.7-3.3c-1.3,0.1-2.5,0.9-3,2.1c-10,23-26.7,74.6-37.8,108.7c-3.9,11.9-6.9,21.2-8.8,26.9
	c-0.8,2.2-3.1,3.5-5.4,2.9c-9.1-2.3-8.5-3.2-21.5-6.6c-2.3-0.6-3.8-2.9-3.3-5.3c2.3-11.1,45.3-190.6,48.6-207.7
	c0.5-2.4,2.8-4,5.3-3.6c0,0,0,0,0,0c9.7,1.9,15.6,4,25.1,6c10.3,2.2,21,4.4,31.4,6.5l0,0c1,0.2,2,0.8,2.6,1.6
	c2.6,3.3,6.4,5.1,10.4,7c2.7,1.3-3.4,1.2-1.1,3.1c9.6,7.6-4.2,162.1-12.6,197C832.4,554.2,830.2,555.7,827.9,555.4L827.9,555.4z"/>
<path class="st4" d="M820,380.3c-1.1-5.1,2.1-10.2,7.2-11.3c0.5-0.1,1.1-0.2,1.7-0.2l21.2-23.9l13.2,15.9l-24.4,17.8
	c-0.1,5.3-4.5,9.4-9.8,9.3C824.7,387.7,820.9,384.6,820,380.3L820,380.3z"/>
<path class="st5" d="M826.9,208.4c-1.5-6.5,6.2-20.5,4.7-27c-1-4.4-11.4-1.4-13.8-5.2s-6.5-6.9-11-7c-5.2-0.1-10.3,3.8-15.2,2.1
	c-5-1.7-6.6-8.5-4.4-13.3s6.9-7.8,11.6-10.2c8-4.1,17.3-7,25.8-4.3c5.2,1.6,9.5,5.1,13.7,8.6c3.8,3.1,7.7,6.3,10.3,10.5
	c5.2,8.1,4.9,19.1,0.4,27.7s-12.6,14.9-21.5,18.5"/>
<path class="st3" d="M762.4,359.7c2.8-4.7,7.1-26.9,12.4-64.1c3.6-25.4,6.8-51.2,8.3-64.4c0.2-2.2,1.6-4.1,3.6-5c1-0.5,2-1,3-1.4
	c12.9-5.6,26-7.5,38.9-5.5c12.9,2,25,7.5,34.9,15.9l0.1,0.1l0,0.2c0.1,0.3,5.5,29.5-5.6,49.2c-10.9,19.5-11.1,71-11.1,71.5v0.7
	l-0.6-0.2c-17-4.9-82.8,3.6-83.5,3.7l-1,0.1L762.4,359.7z"/>
<path class="st3" d="M832.3,363.6l33.5-44.6l-17.3-37l1.3-43.8l14.1-2.6l0.1,0.1c6.9,4,12.2,10.2,15.1,17.6
	c3.1,7.9,9.7,34.6,14.6,55.6c2.6,11-0.7,22.6-8.7,30.6l-41,41L832.3,363.6z"/>
<path class="st4" d="M691.9,275.2c3-4.3,8.9-5.3,13.2-2.3c0.5,0.3,0.9,0.7,1.3,1.1l32-0.5l-2.9,20.5l-29.6-6c-4,3.5-10,3-13.5-1
	C689.5,283.7,689.3,278.8,691.9,275.2L691.9,275.2z"/>
<path class="st3" d="M707.9,293.1l4.6-20l55.5-5.4l15.2-36.6l0.4-1.1l6-5.2l0.1-0.1c12.9-5.6,26-7.5,38.9-5.5l0.5,0.1l0,0.5
	c-0.3,4.7-1.5,9.3-3.5,13.5c-5.7,11.9-41.1,62.5-41.4,63l-0.2,0.2L707.9,293.1z"/>
<path class="st2" d="M974,586H593c-0.6,0-1-0.4-1-1s0.4-1,1-1h381c0.6,0,1,0.4,1,1S974.6,586,974,586z"/>
<path class="st2" d="M382,451H1c-0.6,0-1-0.4-1-1s0.4-1,1-1h381c0.6,0,1,0.4,1,1S382.6,451,382,451z"/>
</svg>
