<?xml version="1.0" encoding="utf-8"?>
<!-- Generator: Adobe Illustrator 26.2.1, SVG Export Plug-In . SVG Version: 6.00 Build 0)  -->
<svg version="1.1" id="Layer_1" xmlns="http://www.w3.org/2000/svg" xmlns:xlink="http://www.w3.org/1999/xlink" x="0px" y="0px"
	 viewBox="0 0 1028 529.6" style="enable-background:new 0 0 1028 529.6;" xml:space="preserve">
<style type="text/css">
	.st0{fill:#0C55CD;}
	.st1{fill:#FFFFFF;}
	.st2{fill:#3F3D56;}
	.st3{fill:#D3D3D3;}
</style>
<rect x="306" y="295.4" class="st0" width="343.7" height="234.2"/>
<path class="st1" d="M668.9,268H330.6c-2.3,0-4.1,1.8-4.1,4.1v228.7c0,2.3,1.8,4.1,4.1,4.1l0,0h338.2c2.3,0,4.1-1.8,4.1-4.1l0,0
	V272.1C673,269.8,671.2,268,668.9,268z M670.3,500.8c0,0.8-0.6,1.4-1.4,1.4l0,0H330.6c-0.8,0-1.4-0.6-1.4-1.4l0,0V272.1
	c0-0.8,0.6-1.4,1.4-1.4h338.2c0.8,0,1.4,0.6,1.4,1.4L670.3,500.8L670.3,500.8z"/>
<path class="st1" d="M346.3,429.6H497c1.1,0,2,0.9,2,2v13.8c0,1.1-0.9,2-2,2H346.3c-1.1,0-2-0.9-2-2v-13.8
	C344.3,430.5,345.2,429.6,346.3,429.6z"/>
<path class="st1" d="M640.1,414.5h-49.3c-2.3,0-4.1,1.8-4.1,4.1l0,0V457c0,2.3,1.8,4.1,4.1,4.1l0,0h49.3c2.3,0,4.1-1.8,4.1-4.1l0,0
	v-38.3C644.2,416.4,642.4,414.5,640.1,414.5L640.1,414.5z M641.5,457c0,0.8-0.6,1.4-1.4,1.4h-49.3c-0.8,0-1.4-0.6-1.4-1.4v-38.3
	c0-0.8,0.6-1.4,1.4-1.4l0,0h49.3c0.8,0,1.4,0.6,1.4,1.4l0,0V457z"/>
<path class="st1" d="M600.7,423.4h29.6c1.1,0,2,0.9,2,2v3c0,1.1-0.9,2-2,2h-29.6c-1.1,0-2-0.9-2-2v-3
	C598.7,424.3,599.6,423.4,600.7,423.4z"/>
<path class="st1" d="M600.7,434.3h29.6c1.1,0,2,0.9,2,2v3c0,1.1-0.9,2-2,2h-29.6c-1.1,0-2-0.9-2-2v-3
	C598.7,435.2,599.6,434.3,600.7,434.3z"/>
<path class="st1" d="M600.7,445.3h29.6c1.1,0,2,0.9,2,2v3c0,1.1-0.9,2-2,2h-29.6c-1.1,0-2-0.9-2-2v-3
	C598.7,446.2,599.6,445.3,600.7,445.3z"/>
<path class="st1" d="M350.4,284.4h67.2c1.1,0,2,0.9,2,2v26.1c0,1.1-0.9,2-2,2h-67.2c-1.1,0-2-0.9-2-2v-26.1
	C348.4,285.3,349.3,284.4,350.4,284.4z"/>
<path class="st0" d="M389.5,299.5c0,5.3-2.5,9.6-5.5,9.6s-5.5-4.3-5.5-9.6c0-5.3,5.5-9.6,5.5-9.6S389.5,294.2,389.5,299.5z"/>
<polygon class="st1" points="902,161.8 900,161.8 900,385.5 673,385.5 673,387.5 902,387.5 "/>
<polygon class="st1" points="306,387.5 77,387.5 77,161.8 79,161.8 79,385.5 306,385.5 "/>
<path class="st0" d="M1027.4,37.8h-1.3v-2.2h1c0.4,0,0.6-0.3,0.6-0.6V23.4c0-0.4-0.3-0.6-0.6-0.6l0,0h-1v-6.6c0-7.7-6.2-14-14-14
	l0,0h-1.4V0.6c0-0.4-0.3-0.6-0.6-0.6l0,0h-11.5c-0.4,0-0.6,0.3-0.6,0.6l0,0v1.6H789.5c-7.7,0-14,6.2-14,14l0,0v297
	c0,7.7,6.2,14,14,14l0,0h222.7c7.7,0,14-6.2,14-14l0,0V50.6h1.3c0.4,0,0.6-0.3,0.6-0.6V38.5C1028,38.1,1027.7,37.8,1027.4,37.8
	L1027.4,37.8z"/>
<path class="st1" d="M788.9,11.4h225.6c1.1,0,1.9,0.9,1.9,1.9v300.6c0,1.1-0.9,1.9-1.9,1.9H788.9c-1.1,0-1.9-0.9-1.9-1.9V13.3
	C787,12.2,787.9,11.4,788.9,11.4z"/>
<path class="st2" d="M877.4,160.6h35.4c1.1,0,2,0.9,2,2v7.7c0,1.1-0.9,2-2,2h-35.4c-1.1,0-2-0.9-2-2v-7.7
	C875.4,161.5,876.3,160.6,877.4,160.6z"/>
<path class="st2" d="M829.8,69.8h130.5c1.1,0,2,0.9,2,2v1c0,1.1-0.9,2-2,2H829.8c-1.1,0-2-0.9-2-2v-1
	C827.8,70.6,828.7,69.8,829.8,69.8z"/>
<path class="st2" d="M829.8,85.6h130.5c1.1,0,2,0.9,2,2v1c0,1.1-0.9,2-2,2H829.8c-1.1,0-2-0.9-2-2v-1
	C827.8,86.5,828.7,85.6,829.8,85.6z"/>
<path class="st2" d="M829.8,101.4h130.5c1.1,0,2,0.9,2,2v1c0,1.1-0.9,2-2,2H829.8c-1.1,0-2-0.9-2-2v-1
	C827.8,102.3,828.7,101.4,829.8,101.4z"/>
<path class="st2" d="M829.8,117.2h130.5c1.1,0,2,0.9,2,2v1c0,1.1-0.9,2-2,2H829.8c-1.1,0-2-0.9-2-2v-1
	C827.8,118.1,828.7,117.2,829.8,117.2z"/>
<path class="st2" d="M829.8,133.1h130.5c1.1,0,2,0.9,2,2v1c0,1.1-0.9,2-2,2H829.8c-1.1,0-2-0.9-2-2v-1
	C827.8,134,828.7,133.1,829.8,133.1z"/>
<circle class="st0" cx="890.3" cy="262" r="41.8"/>
<path class="st2" d="M902.6,294.2c-28.9,0-52.4-23.5-52.4-52.4s23.5-52.4,52.4-52.4s52.4,23.5,52.4,52.4l0,0
	C955,270.7,931.5,294.2,902.6,294.2z M902.6,191.3c-27.9,0-50.5,22.6-50.5,50.5s22.6,50.5,50.5,50.5s50.5-22.6,50.5-50.5l0,0
	C953.1,214,930.5,191.4,902.6,191.3z"/>
<path class="st0" d="M155.5,87.9h-1.7V41c0-15-12.2-27.2-27.2-27.2l0,0H27.2C12.2,13.8,0,26,0,41l0,0v257.5
	c0,15,12.2,27.2,27.2,27.2l0,0h99.4c15,0,27.2-12.2,27.2-27.2l0,0V121.3h1.7V87.9z"/>
<path class="st1" d="M148,42.6v257.1c0,11.2-9.1,20.3-20.3,20.3H27.8c-11.2,0-20.3-9.1-20.3-20.3V42.6c0-11.2,9.1-20.3,20.3-20.3
	h12.1c-2,4.9,0.4,10.6,5.3,12.6c1.2,0.5,2.4,0.7,3.6,0.7h57c5.3,0,9.6-4.3,9.6-9.6c0-1.2-0.2-2.5-0.7-3.6h13
	C138.9,22.3,148,31.4,148,42.6z"/>
<path class="st2" d="M66.4,173.8h22.8c1.1,0,2,0.9,2,2v3.9c0,1.1-0.9,2-2,2H66.4c-1.1,0-2-0.9-2-2v-3.9
	C64.4,174.7,65.3,173.8,66.4,173.8z"/>
<path class="st2" d="M33.7,112h88.1c0.9,0,1.7,0.8,1.7,1.7l0,0c0,0.9-0.8,1.7-1.7,1.7H33.7c-0.9,0-1.7-0.8-1.7-1.7l0,0
	C32,112.8,32.8,112,33.7,112z"/>
<path class="st2" d="M33.7,122.8h88.1c0.9,0,1.7,0.8,1.7,1.7l0,0c0,0.9-0.8,1.7-1.7,1.7H33.7c-0.9,0-1.7-0.8-1.7-1.7l0,0
	C32,123.5,32.8,122.8,33.7,122.8z"/>
<path class="st2" d="M33.7,133.5h88.1c0.9,0,1.7,0.8,1.7,1.7l0,0c0,0.9-0.8,1.7-1.7,1.7H33.7c-0.9,0-1.7-0.8-1.7-1.7l0,0
	C32,134.3,32.8,133.5,33.7,133.5z"/>
<path class="st2" d="M33.7,144.3h88.1c0.9,0,1.7,0.8,1.7,1.7l0,0c0,0.9-0.8,1.7-1.7,1.7H33.7c-0.9,0-1.7-0.8-1.7-1.7l0,0
	C32,145.1,32.8,144.3,33.7,144.3z"/>
<path class="st2" d="M33.7,155.1h88.1c0.9,0,1.7,0.8,1.7,1.7l0,0c0,0.9-0.8,1.7-1.7,1.7H33.7c-0.9,0-1.7-0.8-1.7-1.7l0,0
	C32,155.8,32.8,155.1,33.7,155.1z"/>
<circle class="st0" cx="69.9" cy="256.4" r="28.8"/>
<path class="st2" d="M78.4,278.6c-20,0-36.1-16.2-36.1-36.1s16.2-36.1,36.1-36.1s36.1,16.2,36.1,36.1l0,0
	C114.5,262.4,98.3,278.6,78.4,278.6z M78.4,207.6c-19.2,0-34.8,15.6-34.8,34.8s15.6,34.8,34.8,34.8s34.8-15.6,34.8-34.8
	S97.6,207.7,78.4,207.6z"/>
<rect x="147.5" y="375.2" class="st3" width="28" height="28"/>
<path class="st1" d="M192.5,387.2h-34v-34h34V387.2z M160,385.7h31v-31h-31V385.7z"/>
<rect x="774.5" y="375.2" class="st3" width="28" height="28"/>
<path class="st1" d="M819.5,387.2h-34v-34h34V387.2z M787,385.7h31v-31h-31V385.7z"/>
</svg>
